# xmcd
#
# Track frame offsets: 
#        183
#        10053
#        18655
#        29358
#        40188
#        51545
#        62960
#        74283
#        88015
#        102650
#        117225
#        129090
#        141050
#        152798
#        166318
#        179975
#        193505
#        206840
#        218335
#        232798
#
# Disc length: 3290 seconds
#
# Revision: 1
# Processed by: cddbd v1.5.1PL2 Copyright (c) Steve Scherf et al.
# Submitted via: ExactAudioCopy v0.95b3
#
DISCID=1e0cd814
DTITLE=Sydney Bechet - Bluebird Sessions 3
DYEAR=1900
DGENRE=Jazz
TTITLE0=The Sheik of Araby 
TTITLE1=Blues of Bechet 
TTITLE2=Swing Parade (1)
TTITLE3=Swing Parade (2) 
TTITLE4=I Know That You Know (and You Know That I Know) (1)
TTITLE5=I Know That You Know (and You Know That I Know) (2)
TTITLE6=I Know That You Know (and You Know That I Know) (3) 
TTITLE7=When It's Sleepy-Time Down South 
TTITLE8=I Ain't Gonna Give Nobody None O'This Jelly Rol (1)
TTITLE9=I Ain't Gonna Give Nobody None O'This Jelly Rol (2)
TTITLE10=I'm Coming, Virginia (1)
TTITLE11=I'm Coming, Virginia (2) 
TTITLE12=Limehouse Blues 
TTITLE13=Georgia Cabin (1) 
TTITLE14=Georgia Cabin (2) 
TTITLE15=Texas Moaner Blues (1)
TTITLE16=Texas Moaner Blues (2) 
TTITLE17=Strange Fruit 
TTITLE18=You're the Limit (1) 
TTITLE19=You're the Limit (2) 
EXTD=
EXTT0=
EXTT1=
EXTT2=
EXTT3=
EXTT4=
EXTT5=
EXTT6=
EXTT7=
EXTT8=
EXTT9=
EXTT10=
EXTT11=
EXTT12=
EXTT13=
EXTT14=
EXTT15=
EXTT16=
EXTT17=
EXTT18=
EXTT19=
PLAYORDER=
